<?xml version="1.0" encoding="UTF-8"?>
<svg version="1.1" xmlns="http://www.w3.org/2000/svg" width="325" height="268">
<path d="M0 0 C107.25 0 214.5 0 325 0 C325 88.44 325 176.88 325 268 C217.75 268 110.5 268 0 268 C0 179.56 0 91.12 0 0 Z " fill="#FAFAFA" transform="translate(0,0)"/>
<path d="M0 0 C107.25 0 214.5 0 325 0 C325 88.44 325 176.88 325 268 C316.75 268 308.5 268 300 268 C299.99589111 265.37611328 299.99178223 262.75222656 299.98754883 260.04882812 C299.97032401 251.3634514 299.92577661 242.67836794 299.86790943 233.99317169 C299.8336707 228.7291142 299.80853426 223.46534598 299.80444336 218.20117188 C299.80015378 213.11750746 299.77163601 208.03449524 299.72656822 202.95103455 C299.71361435 201.01508895 299.70927804 199.07906521 299.71384621 197.14308167 C299.71876726 194.42345425 299.69259416 191.70572204 299.65942383 188.98632812 C299.66804947 188.19222534 299.67667511 187.39812256 299.68556213 186.57995605 C299.56519797 180.66355806 297.76352209 176.5742766 294 172 C289.42672821 168.43284801 285.85357454 166.92712134 280.11328125 166.68359375 C279.17548828 166.64169922 278.23769531 166.59980469 277.27148438 166.55664062 C276.29501953 166.51732422 275.31855469 166.47800781 274.3125 166.4375 C273.32443359 166.39431641 272.33636719 166.35113281 271.31835938 166.30664062 C268.87904454 166.20058346 266.43962887 166.09852286 264 166 C263.9906543 165.28457031 263.98130859 164.56914062 263.97167969 163.83203125 C263.91761155 160.55401808 263.83403529 157.27737639 263.75 154 C263.73582031 152.87464844 263.72164063 151.74929687 263.70703125 150.58984375 C263.490546 143.18604815 262.85786165 137.14291217 257.58911133 131.48486328 C246.65413784 121.74429038 234.04635144 125.5188397 219 125 C219 100.91 219 76.82 219 52 C181.38 52 143.76 52 105 52 C105 76.09 105 100.18 105 125 C95.76 125.33 86.52 125.66 77 126 C68.04867179 130.10890386 68.04867179 130.10890386 62.89306641 137.78564453 C62.00200433 140.99278596 61.68859688 143.73536755 61.5859375 147.0546875 C61.54726563 148.16328125 61.50859375 149.271875 61.46875 150.4140625 C61.4378125 151.55617187 61.406875 152.69828125 61.375 153.875 C61.33632813 155.0403125 61.29765625 156.205625 61.2578125 157.40625 C61.16389681 160.27067864 61.07822017 163.13510692 61 166 C60.3702124 166.0093457 59.7404248 166.01869141 59.09155273 166.02832031 C56.20610782 166.08238762 53.32222136 166.16596125 50.4375 166.25 C49.44685547 166.26417969 48.45621094 166.27835938 47.43554688 166.29296875 C40.2606773 166.53133651 35.71022638 167.60391178 30.29296875 172.5625 C25.82074682 178.3779688 24.70121118 182.01495268 24.68115234 189.34863281 C24.67110672 190.18802399 24.6610611 191.02741516 24.65071106 191.89224243 C24.6198577 194.66252975 24.60283794 197.43272033 24.5859375 200.203125 C24.56722759 202.1255578 24.54765431 204.04798237 24.5272522 205.97039795 C24.47590636 211.02721305 24.43629371 216.08405479 24.39910889 221.14099121 C24.35908465 226.30239463 24.30798509 231.46368702 24.2578125 236.625 C24.16102416 246.74992204 24.07662862 256.87490673 24 267 C20.75030231 267.11638036 17.5011417 267.18730581 14.25 267.25 C13.32960938 267.28351563 12.40921875 267.31703125 11.4609375 267.3515625 C10.12675781 267.37089844 10.12675781 267.37089844 8.765625 267.390625 C7.94868164 267.41157227 7.13173828 267.43251953 6.29003906 267.45410156 C4 267 4 267 1.73221207 265.62968063 C-1.00499842 261.47430638 -0.53711773 257.40442696 -0.48101807 252.53448486 C-0.48444214 251.45969376 -0.48786621 250.38490265 -0.49139404 249.27754211 C-0.49803269 245.65253456 -0.47589299 242.02826069 -0.45410156 238.40332031 C-0.45287667 235.76957962 -0.45323166 233.13588311 -0.45556259 230.50214767 C-0.45769033 224.15263243 -0.43921069 217.80334322 -0.41355728 211.45388608 C-0.38477488 204.11036442 -0.38157927 196.76692206 -0.37841797 189.42333984 C-0.35741037 170.03219069 -0.30156598 150.64109196 -0.25 131.25 C-0.1675 87.9375 -0.085 44.625 0 0 Z " fill="#000000" transform="translate(0,0)"/>
<path d="M0 0 C0.98729434 -0.01275828 0.98729434 -0.01275828 1.99453402 -0.0257743 C4.19282888 -0.04800186 6.38942408 -0.03462223 8.58776855 -0.02119446 C10.16659251 -0.0296096 11.74540641 -0.04013559 13.32420349 -0.0526123 C17.60734258 -0.07966734 21.88989936 -0.07495826 26.17308617 -0.06291175 C29.74929184 -0.0557812 33.32538977 -0.06427907 36.90158701 -0.07281715 C45.33760686 -0.09277066 53.77334333 -0.08719819 62.20935059 -0.06513977 C70.91252436 -0.04276946 79.61495666 -0.06038213 88.3180604 -0.09818906 C95.79169573 -0.12941491 103.26510142 -0.13734161 110.73879385 -0.12623531 C115.20196269 -0.11974554 119.66470351 -0.12176321 124.12782288 -0.14555931 C128.32408192 -0.16679355 132.51929364 -0.15885808 136.71548653 -0.12846565 C138.25498788 -0.12213214 139.79457035 -0.12601403 141.33401299 -0.14087677 C143.43733767 -0.15953712 145.53722791 -0.14117897 147.64038086 -0.11352539 C149.40463032 -0.11208039 149.40463032 -0.11208039 151.20452118 -0.11060619 C154.32019043 0.64164734 154.32019043 0.64164734 159.32019043 6.64164734 C159.32019043 20.83164734 159.32019043 35.02164734 159.32019043 49.64164734 C102.89019043 49.64164734 46.46019043 49.64164734 -11.67980957 49.64164734 C-11.67980957 0.03161788 -11.67980957 0.03161788 0 0 Z " fill="#050505" transform="translate(88.6798095703125,218.3583526611328)"/>
<path d="M0 0 C0.83727129 -0.00720654 1.67454258 -0.01441309 2.53718573 -0.02183801 C3.45701961 -0.01446372 4.37685349 -0.00708944 5.32456112 0.00050831 C6.30168228 -0.0034661 7.27880343 -0.0074405 8.28553432 -0.01153535 C11.57456307 -0.02119469 14.86316559 -0.00931816 18.15218258 0.00241566 C20.50403155 -0.00001109 22.85587949 -0.00372926 25.20772457 -0.00864697 C31.60629227 -0.01807509 38.00470751 -0.0086146 44.40326333 0.00468516 C50.41062488 0.01610813 56.41799066 0.01238829 62.42535948 0.01048265 C74.32765319 0.0072915 86.22988708 0.01896814 98.13216305 0.03854847 C109.69012428 0.05755746 121.24801542 0.06463506 132.80599117 0.05905628 C145.38362168 0.05300332 157.96122135 0.05316636 170.53884929 0.06454211 C177.20000613 0.07054286 183.86114285 0.07420513 190.52230167 0.07157421 C196.78244194 0.06969654 203.04249172 0.0777549 209.30261135 0.09363461 C211.6061144 0.09789271 213.90962659 0.09871784 216.2131319 0.0959444 C219.34559055 0.09274393 222.4777752 0.10175025 225.61020565 0.1140337 C226.53227025 0.11025438 227.45433485 0.10647505 228.4043408 0.1025812 C234.67556268 0.14640123 234.67556268 0.14640123 236.90389156 2.37473011 C237.09184767 5.02517115 237.15573017 7.57023825 237.13094234 10.22092152 C237.1312344 11.03075993 237.13152645 11.84059834 237.13182735 12.6749773 C237.13043106 15.35885707 237.11485591 18.04246118 237.09920406 20.72629261 C237.09547499 22.58431312 237.09262752 24.44233559 237.09062862 26.30035877 C237.0829838 31.19619625 237.06332805 36.0919155 237.04122066 40.98770618 C237.02078049 45.98128122 237.01163083 50.97487532 237.00154781 55.96848011 C236.98008292 65.77062381 236.9448939 75.57264864 236.90389156 85.37473011 C230.30389156 85.37473011 223.70389156 85.37473011 216.90389156 85.37473011 C216.86521969 80.65869495 216.86521969 80.65869495 216.82576656 75.84738636 C216.78727843 72.77918273 216.74213996 69.71114332 216.69637203 66.64304066 C216.66826631 64.52202758 216.6470004 62.40091179 216.63289547 60.27975941 C216.61132167 57.21843745 216.56459736 54.15833703 216.51326656 51.09738636 C216.51142361 49.69058361 216.51142361 49.69058361 216.50954342 48.2553606 C216.34911915 40.93118983 214.74037356 34.69319245 209.90389156 29.03488636 C209.24389156 28.5076598 208.58389156 27.98043324 207.90389156 27.43723011 C206.91389156 26.61931995 206.91389156 26.61931995 205.90389156 25.78488636 C201.50811398 22.68551974 198.49790674 22.12209409 193.06081295 22.10730457 C192.37291943 22.10277346 191.68502591 22.09824235 190.97628713 22.09357393 C188.6718135 22.08091623 186.36757579 22.08255117 184.06307125 22.08420277 C182.41045484 22.07821826 180.75784122 22.07141289 179.10523129 22.06384754 C174.61538984 22.04616984 170.12562461 22.04149135 165.63575172 22.04021597 C162.82953695 22.03879452 160.02334157 22.03452499 157.21713161 22.02922153 C147.4237409 22.01071361 137.63040465 22.00255165 127.83699703 22.00412464 C118.71429589 22.00532543 109.59183158 21.9842374 100.46919036 21.95263731 C92.63294481 21.92646251 84.79677653 21.91575789 76.9604876 21.91703546 C72.28210107 21.91754485 67.60392486 21.91187473 62.92558193 21.89067936 C58.52273051 21.87127733 54.12028957 21.87118585 49.71742344 21.88571262 C48.10499184 21.88779957 46.49253442 21.8831066 44.88014698 21.87099171 C35.60591568 21.80584436 28.22700585 21.78123188 20.88045406 28.12082386 C20.21143063 28.95806995 20.21143063 28.95806995 19.52889156 29.81223011 C19.06740719 30.36781605 18.60592281 30.92340199 18.13045406 31.49582386 C15.63956745 35.31148137 14.65676086 38.81848642 14.58504391 43.34860706 C14.56517422 44.3092255 14.54530453 45.26984394 14.52483273 46.25957203 C14.50750591 47.7957745 14.50750591 47.7957745 14.48982906 49.36301136 C14.47046291 50.42134678 14.45109676 51.4796822 14.43114376 52.57008839 C14.37147908 55.94238759 14.32501463 59.31472117 14.27889156 62.68723011 C14.24069976 64.97695834 14.20164732 67.26667239 14.16170406 69.55637074 C14.06417229 75.16241574 13.98449838 80.76831403 13.90389156 86.37473011 C6.97389156 86.37473011 0.04389156 86.37473011 -7.09610844 86.37473011 C-7.16382704 75.60469398 -7.21889144 64.83479875 -7.25154495 54.06459808 C-7.26721528 49.06380982 -7.28847847 44.06317449 -7.3224268 39.06247425 C-7.35497152 34.23845697 -7.37295115 29.41458698 -7.38074017 24.59046841 C-7.38629247 22.74801597 -7.39713451 20.90557178 -7.41329861 19.06318188 C-7.43500809 16.48675827 -7.43807811 13.91094694 -7.43668461 11.33444691 C-7.44747044 10.56912144 -7.45825626 9.80379597 -7.46936893 9.01527882 C-7.4389515 3.833842 -7.4389515 3.833842 -5.82956749 1.67866546 C-3.70673314 0.08183585 -2.63600061 -0.00020036 0 0 Z " fill="#050505" transform="translate(47.09610843658447,181.62526988983154)"/>
<path d="M0 0 C26.73 0 53.46 0 81 0 C81 32.01 81 64.02 81 97 C54.27 97 27.54 97 0 97 C0 64.99 0 32.98 0 0 Z " fill="#020202" transform="translate(122,69)"/>
<path d="M0 0 C0.68874795 -0.00523668 1.37749589 -0.01047336 2.08711499 -0.01586872 C4.38847341 -0.03083651 6.68960887 -0.03157315 8.99101257 -0.03224182 C10.6437772 -0.03986549 12.29653828 -0.04829334 13.94929504 -0.0574646 C18.43493711 -0.07939614 22.92051102 -0.0882067 27.40620065 -0.09329104 C30.21024332 -0.09693622 33.01426818 -0.10317713 35.81830406 -0.11029243 C45.60521096 -0.13478231 55.39206489 -0.14783782 65.17900085 -0.15138245 C74.29438603 -0.1550173 83.40943442 -0.18491025 92.52471668 -0.22678703 C100.35673655 -0.2615039 108.18864488 -0.27693113 116.02074116 -0.27762848 C120.69581563 -0.27842082 125.37054696 -0.28713971 130.04554176 -0.31562614 C134.44436548 -0.34183079 138.84256213 -0.34399882 143.24142838 -0.3279705 C144.85225608 -0.32615791 146.46312004 -0.33282973 148.07386971 -0.34878922 C158.25147963 -0.44345067 164.76011981 0.3324828 172.31401062 7.40696716 C172.86186218 8.06438904 173.40971375 8.72181091 173.97416687 9.39915466 C174.54006531 10.06173279 175.10596375 10.72431091 175.68901062 11.40696716 C177.98805493 14.59230972 178.1599643 17.31145554 178.15019226 21.11277771 C178.15011673 22.09356796 178.1500412 23.07435822 178.14996338 24.08486938 C178.14480209 25.14120071 178.13964081 26.19753204 178.13432312 27.28587341 C178.1322007 28.91091545 178.1322007 28.91091545 178.1300354 30.56878662 C178.12443246 34.03310391 178.11187945 37.49735686 178.09916687 40.96165466 C178.09415225 43.30865894 178.08958928 45.65566423 178.085495 48.00267029 C178.07446207 53.75985658 178.05719545 59.51699471 178.03666687 65.27415466 C173.08666687 65.27415466 168.13666687 65.27415466 163.03666687 65.27415466 C163.02732117 63.99774109 163.01797546 62.72132751 163.00834656 61.40623474 C162.96842348 56.66288064 162.90265784 51.92017354 162.82914734 47.17723083 C162.80095123 45.1258832 162.77972994 43.07442719 162.76567078 41.02293396 C162.74422263 38.07095412 162.69756239 35.12027536 162.64604187 32.16868591 C162.64419891 30.79653679 162.64419891 30.79653679 162.64231873 29.39666748 C162.6226001 28.5361528 162.60288147 27.67563812 162.58256531 26.78904724 C162.57368286 26.03625992 162.56480042 25.2834726 162.5556488 24.50787354 C161.79909873 21.25165195 160.38116032 19.64004077 158.03666687 17.27415466 C154.96874435 16.52617242 154.96874435 16.52617242 151.47038269 16.64596558 C150.81233532 16.63887119 150.15428796 16.6317768 149.47629976 16.62446743 C147.27251964 16.60687271 145.0705 16.62499669 142.866745 16.64305115 C141.28645016 16.63791281 139.70616105 16.63063218 138.12588501 16.62136841 C133.83445249 16.60283491 129.5436403 16.61580493 125.25223351 16.63545871 C120.76309345 16.65183061 116.27399314 16.64303435 111.78483582 16.63793945 C104.24579445 16.63341685 96.70700106 16.64929857 89.16801453 16.67723083 C80.44963671 16.70928356 71.73170618 16.7092676 63.0132966 16.69201607 C54.62938225 16.67615691 46.24563202 16.68288057 37.86172485 16.69995308 C34.29239539 16.70682896 30.72319727 16.70578564 27.15386963 16.69840813 C22.9512331 16.69075166 18.74910609 16.7028501 14.54655647 16.73025703 C13.00341873 16.73714873 11.46023348 16.7372304 9.91709709 16.7300415 C7.81181156 16.72136329 5.70810445 16.73727159 3.60295105 16.75949097 C1.83537067 16.76370135 1.83537067 16.76370135 0.0320816 16.76799679 C-3.57722424 17.37788848 -4.75471388 18.4116081 -6.96333313 21.27415466 C-7.56960464 23.43618225 -7.56960464 23.43618225 -7.50923157 25.76731873 C-7.53880951 27.08823517 -7.53880951 27.08823517 -7.56898499 28.43583679 C-7.57021362 29.37763794 -7.57144226 30.31943909 -7.57270813 31.28977966 C-7.58924438 32.26074585 -7.60578064 33.23171204 -7.62281799 34.23210144 C-7.67135432 37.3295165 -7.6926817 40.42644039 -7.71333313 43.52415466 C-7.74148806 45.62574195 -7.77141481 47.7273063 -7.80317688 49.82884216 C-7.87711503 54.97723924 -7.92665542 60.12536275 -7.96333313 65.27415466 C-13.24333313 65.27415466 -18.52333313 65.27415466 -23.96333313 65.27415466 C-24.06255988 58.58474505 -24.1349719 51.89576836 -24.18305969 45.20579529 C-24.2031163 42.93228182 -24.23036851 40.65881956 -24.26509094 38.38548279 C-24.31387025 35.10866117 -24.3363621 31.83252442 -24.35395813 28.55540466 C-24.37460327 27.54675354 -24.39524841 26.53810242 -24.41651917 25.49888611 C-24.41886198 18.05153264 -22.95393206 12.68688585 -17.99848938 7.03196716 C-17.34751282 6.49313904 -16.69653625 5.95431091 -16.02583313 5.39915466 C-15.37743469 4.84485779 -14.72903625 4.29056091 -14.06098938 3.71946716 C-9.46605708 0.55349891 -5.52770564 0.02087824 0 0 Z " fill="#FCFCFC" transform="translate(84.96333312988281,202.72584533691406)"/>
<path d="M0 0 C34.65 0 69.3 0 105 0 C105 5.28 105 10.56 105 16 C70.35 16 35.7 16 0 16 C0 10.72 0 5.44 0 0 Z " fill="#FFFFFF" transform="translate(110,235)"/>
<path d="M0 0 C18.81 0 37.62 0 57 0 C57 5.28 57 10.56 57 16 C38.19 16 19.38 16 0 16 C0 10.72 0 5.44 0 0 Z " fill="#FCFCFC" transform="translate(134,109)"/>
<path d="M0 0 C18.81 0 37.62 0 57 0 C57 5.28 57 10.56 57 16 C38.19 16 19.38 16 0 16 C0 10.72 0 5.44 0 0 Z " fill="#FBFBFB" transform="translate(134,81)"/>
<path d="M0 0 C4.4584922 -0.05371677 8.91634389 -0.09353771 13.375 -0.125 C15.28152344 -0.15013672 15.28152344 -0.15013672 17.2265625 -0.17578125 C18.43828125 -0.18222656 19.65 -0.18867188 20.8984375 -0.1953125 C22.01911621 -0.20578613 23.13979492 -0.21625977 24.29443359 -0.22705078 C27 0 27 0 29 2 C29.22705078 4.24658203 29.22705078 4.24658203 29.1953125 7.0078125 C29.19031738 7.8961377 29.18532227 8.78446289 29.18017578 9.69970703 C29.15286377 11.39522705 29.15286377 11.39522705 29.125 13.125 C29.08375 16.71375 29.0425 20.3025 29 24 C19.43 24 9.86 24 0 24 C0 16.08 0 8.16 0 0 Z " fill="#050505" transform="translate(219,142)"/>
<path d="M0 0 C1.07878418 0.01047363 2.15756836 0.02094727 3.26904297 0.03173828 C5.01894531 0.04140625 5.01894531 0.04140625 6.80419922 0.05126953 C8.02751953 0.06802734 9.25083984 0.08478516 10.51123047 0.10205078 C11.74228516 0.11107422 12.97333984 0.12009766 14.24169922 0.12939453 C17.28995852 0.15302445 20.33811836 0.18889639 23.38623047 0.22705078 C23.38623047 8.14705078 23.38623047 16.06705078 23.38623047 24.22705078 C14.14623047 24.22705078 4.90623047 24.22705078 -4.61376953 24.22705078 C-4.65501953 20.63830078 -4.69626953 17.04955078 -4.73876953 13.35205078 C-4.75697754 12.2217041 -4.77518555 11.09135742 -4.79394531 9.92675781 C-4.79894043 9.03843262 -4.80393555 8.15010742 -4.80908203 7.23486328 C-4.81955566 6.32365723 -4.8300293 5.41245117 -4.84082031 4.47363281 C-4.49295445 1.03163105 -3.37495376 0.29317271 0 0 Z " fill="#000000" transform="translate(81.61376953125,141.77294921875)"/>
<path d="M0 0 C0.33 0 0.66 0 1 0 C1 88.44 1 176.88 1 268 C-7.25 268 -15.5 268 -24 268 C-24 239.95 -24 211.9 -24 183 C-23.67 183 -23.34 183 -23 183 C-23 210.72 -23 238.44 -23 267 C-6.03837812 267.72739791 -6.03837812 267.72739791 -1 264 C-0.54423073 261.99131072 -0.54423073 261.99131072 -0.61523914 259.6309185 C-0.6057826 258.70731997 -0.59632606 257.78372144 -0.58658296 256.83213508 C-0.59143053 255.81075041 -0.59627811 254.78936575 -0.60127258 253.73703003 C-0.59130234 252.11738002 -0.59130234 252.11738002 -0.58113068 250.46500981 C-0.56237928 246.8227706 -0.56511415 243.18085639 -0.56762695 239.53857422 C-0.55861722 236.9373223 -0.54829197 234.33607465 -0.53674316 231.73483276 C-0.51391165 226.12215435 -0.50206425 220.50953817 -0.49761391 214.89681625 C-0.49116364 206.78171583 -0.46824619 198.66672816 -0.44127061 190.55167307 C-0.39795674 177.38651533 -0.36801631 164.22136232 -0.34643555 151.05615234 C-0.32543961 138.26511303 -0.29817666 125.47411249 -0.26245117 112.68310547 C-0.26025235 111.89506408 -0.25805352 111.1070227 -0.25578807 110.29510127 C-0.24471876 106.34184743 -0.23352589 102.38859396 -0.22227156 98.43534064 C-0.12902136 65.62359268 -0.05745362 32.81183047 0 0 Z " fill="#404040" transform="translate(324,0)"/>
<path d="M0 0 C0.33 0 0.66 0 1 0 C1 27.72 1 55.44 1 84 C17.96162188 84.72739791 17.96162188 84.72739791 23 81 C23.66 80.01 24.32 79.02 25 78 C25 80.31 25 82.62 25 85 C16.75 85 8.5 85 0 85 C0 56.95 0 28.9 0 0 Z " fill="#636363" transform="translate(300,183)"/>
<path d="M0 0 C0.56170898 0.4844458 1.12341797 0.9688916 1.70214844 1.46801758 C4.30507463 3.20339389 5.67527323 3.41266901 8.765625 3.51171875 C9.65507812 3.54716797 10.54453125 3.58261719 11.4609375 3.61914062 C12.38132812 3.64169922 13.30171875 3.66425781 14.25 3.6875 C15.65378906 3.73874023 15.65378906 3.73874023 17.0859375 3.79101562 C19.39050533 3.87332162 21.69470119 3.9425263 24 4 C24 4.33 24 4.66 24 5 C16.08 5 8.16 5 0 5 C0 3.35 0 1.7 0 0 Z " fill="#AEAEAE" transform="translate(0,263)"/>
<path d="M0 0 C0.33 0 0.66 0 1 0 C1 2.31 1 4.62 1 7 C-1.31 7 -3.62 7 -6 7 C-5.195625 6.401875 -4.39125 5.80375 -3.5625 5.1875 C-0.77672016 3.19052724 -0.77672016 3.19052724 0 0 Z " fill="#EBEBEB" transform="translate(324,261)"/>
</svg>
